<mxfile host="app.diagrams.net" modified="2020-06-22T21:57:25.270Z" agent="5.0 (Macintosh; Intel Mac OS X 10_14_6) AppleWebKit/537.36 (KHTML, like Gecko) Chrome/83.0.4103.106 Safari/537.36" etag="ihMqV5RipIHQg7D_iihM" version="13.3.0" type="github">
  <diagram id="nHtHo7IPAPnNrSM1sG2S" name="Page-1">
    <mxGraphModel dx="946" dy="614" grid="1" gridSize="10" guides="1" tooltips="1" connect="1" arrows="1" fold="1" page="1" pageScale="1" pageWidth="850" pageHeight="1100" math="0" shadow="0">
      <root>
        <mxCell id="0" />
        <mxCell id="1" parent="0" />
        <mxCell id="QVgjg6RMbLNZTQpQtQ4s-1" value="" style="group;dropTarget=0;" parent="1" vertex="1">
          <mxGeometry x="367" y="154" width="529" height="544" as="geometry" />
        </mxCell>
        <UserObject label="2" lucidchartObjectId="c8AZzpJM9zTO" id="QVgjg6RMbLNZTQpQtQ4s-2">
          <mxCell style="html=1;whiteSpace=wrap;ellipse;fontSize=13;fontColor=#ffffff;fontStyle=1;spacing=3;strokeOpacity=0;fillOpacity=100;fillColor=#4397ff;" parent="QVgjg6RMbLNZTQpQtQ4s-1" vertex="1">
            <mxGeometry x="170" y="66" width="20" height="20" as="geometry" />
          </mxCell>
        </UserObject>
        <UserObject label="3" lucidchartObjectId="k8AZ7hgyojpw" id="QVgjg6RMbLNZTQpQtQ4s-3">
          <mxCell style="html=1;whiteSpace=wrap;ellipse;fontSize=13;fontColor=#ffffff;fontStyle=1;spacing=3;strokeOpacity=0;fillOpacity=100;fillColor=#4397ff;" parent="QVgjg6RMbLNZTQpQtQ4s-1" vertex="1">
            <mxGeometry x="509" y="158" width="20" height="20" as="geometry" />
          </mxCell>
        </UserObject>
        <UserObject label="4" lucidchartObjectId="t8AZ.MpWrOA6" id="QVgjg6RMbLNZTQpQtQ4s-4">
          <mxCell style="html=1;whiteSpace=wrap;ellipse;fontSize=13;fontColor=#ffffff;fontStyle=1;spacing=3;strokeOpacity=0;fillOpacity=100;fillColor=#4397ff;" parent="QVgjg6RMbLNZTQpQtQ4s-1" vertex="1">
            <mxGeometry x="170" y="158" width="20" height="20" as="geometry" />
          </mxCell>
        </UserObject>
        <UserObject label="5" lucidchartObjectId="O8AZnCvz27dr" id="QVgjg6RMbLNZTQpQtQ4s-5">
          <mxCell style="html=1;whiteSpace=wrap;ellipse;fontSize=13;fontColor=#ffffff;fontStyle=1;spacing=3;strokeOpacity=0;fillOpacity=100;fillColor=#4397ff;" parent="QVgjg6RMbLNZTQpQtQ4s-1" vertex="1">
            <mxGeometry x="170" y="228" width="20" height="20" as="geometry" />
          </mxCell>
        </UserObject>
        <UserObject label="6" lucidchartObjectId="a9AZdJZeVmQ0" id="QVgjg6RMbLNZTQpQtQ4s-6">
          <mxCell style="html=1;whiteSpace=wrap;ellipse;fontSize=13;fontColor=#ffffff;fontStyle=1;spacing=3;strokeOpacity=0;fillOpacity=100;fillColor=#4397ff;" parent="QVgjg6RMbLNZTQpQtQ4s-1" vertex="1">
            <mxGeometry y="243" width="20" height="20" as="geometry" />
          </mxCell>
        </UserObject>
        <UserObject label="7" lucidchartObjectId="o9AZtqkOdskW" id="QVgjg6RMbLNZTQpQtQ4s-7">
          <mxCell style="html=1;whiteSpace=wrap;ellipse;fontSize=13;fontColor=#ffffff;fontStyle=1;spacing=3;strokeOpacity=0;fillOpacity=100;fillColor=#4397ff;" parent="QVgjg6RMbLNZTQpQtQ4s-1" vertex="1">
            <mxGeometry y="524" width="20" height="20" as="geometry" />
          </mxCell>
        </UserObject>
        <UserObject label="" lucidchartObjectId="ZyE4skOyJKSB" id="QVgjg6RMbLNZTQpQtQ4s-9">
          <mxCell style="html=1;whiteSpace=wrap;;fontSize=11;spacing=3;strokeOpacity=0;" parent="1" vertex="1">
            <mxGeometry x="133" y="184" width="791" height="584" as="geometry" />
          </mxCell>
        </UserObject>
        <UserObject label="" lucidchartObjectId="ZyE4cStbNhLG" id="QVgjg6RMbLNZTQpQtQ4s-10">
          <mxCell style="html=1;whiteSpace=wrap;;fontSize=11;spacing=3;strokeOpacity=0;fillOpacity=100;fillColor=#f6f6f7;" parent="1" vertex="1">
            <mxGeometry x="145" y="303" width="771" height="445" as="geometry" />
          </mxCell>
        </UserObject>
        <UserObject label="" lucidchartObjectId="ZyE43ghjHJ9U" id="QVgjg6RMbLNZTQpQtQ4s-11">
          <mxCell style="html=1;whiteSpace=wrap;;fontSize=11;spacing=3;strokeOpacity=0;fillOpacity=100;fillColor=#eff0f0;" parent="1" vertex="1">
            <mxGeometry x="238" y="277" width="237" height="481" as="geometry" />
          </mxCell>
        </UserObject>
        <UserObject label="" lucidchartObjectId="ZyE4tvYUVZSG" id="QVgjg6RMbLNZTQpQtQ4s-12">
          <mxCell style="html=1;whiteSpace=wrap;;fontSize=11;spacing=3;strokeOpacity=0;fillOpacity=100;fillColor=#eff0f0;" parent="1" vertex="1">
            <mxGeometry x="584" y="277" width="237" height="481" as="geometry" />
          </mxCell>
        </UserObject>
        <mxCell id="QVgjg6RMbLNZTQpQtQ4s-13" value="" style="html=1;whiteSpace=wrap;fontSize=11;spacing=0;strokeOpacity=100;fillOpacity=0;fillColor=#000000;" parent="1" vertex="1">
          <mxGeometry x="252" y="348" width="211" height="129" as="geometry" />
        </mxCell>
        <UserObject label="" lucidchartObjectId="ZyE40Bf.4xP-" id="QVgjg6RMbLNZTQpQtQ4s-14">
          <mxCell style="html=1;whiteSpace=wrap;shape=mxgraph.aws4.group;grIcon=mxgraph.aws4.group_security_group;grStroke=0;verticalAlign=top;align=left;spacingLeft=30;strokeColor=#2C8723;fontColor=#2C8723;fillOpacity=13;fillColor=#248814;fontSize=11;spacing=0;strokeOpacity=100;part=1;" parent="QVgjg6RMbLNZTQpQtQ4s-13" vertex="1">
            <mxGeometry width="211" height="129" as="geometry" />
          </mxCell>
        </UserObject>
        <mxCell id="QVgjg6RMbLNZTQpQtQ4s-15" value="" style="html=1;whiteSpace=wrap;fontSize=9;fontColor=#666666;fontStyle=1;spacing=0;strokeOpacity=100;fillOpacity=0;fillColor=#000000;" parent="1" vertex="1">
          <mxGeometry x="133" y="184" width="791" height="584" as="geometry" />
        </mxCell>
        <UserObject label="AWS Cloud" lucidchartObjectId="ZyE4pIuA_5Mh" id="QVgjg6RMbLNZTQpQtQ4s-16">
          <mxCell style="html=1;whiteSpace=wrap;shape=mxgraph.aws4.group;grIcon=mxgraph.aws4.group_aws_cloud_alt;verticalAlign=top;align=left;spacingLeft=30;fillOpacity=100;fillColor=none;fontSize=9;fontColor=#666666;fontStyle=1;spacing=0;strokeOpacity=100;part=1;" parent="QVgjg6RMbLNZTQpQtQ4s-15" vertex="1">
            <mxGeometry width="791" height="584" as="geometry" />
          </mxCell>
        </UserObject>
        <mxCell id="QVgjg6RMbLNZTQpQtQ4s-17" value="" style="html=1;whiteSpace=wrap;fontSize=9;fontColor=#666666;fontStyle=1;spacing=0;strokeOpacity=100;fillOpacity=0;fillColor=#000000;" parent="1" vertex="1">
          <mxGeometry x="143" y="304" width="771" height="445" as="geometry" />
        </mxCell>
        <UserObject label="VPC" lucidchartObjectId="ZyE4o0.zI6l3" id="QVgjg6RMbLNZTQpQtQ4s-18">
          <mxCell style="html=1;whiteSpace=wrap;shape=mxgraph.aws4.group;grIcon=mxgraph.aws4.group_vpc;verticalAlign=top;align=left;spacingLeft=30;fillOpacity=100;fontColor=#2C8723;fillColor=none;fontSize=9;fontStyle=1;spacing=0;strokeOpacity=100;part=1;" parent="QVgjg6RMbLNZTQpQtQ4s-17" vertex="1">
            <mxGeometry width="771" height="445" as="geometry" />
          </mxCell>
        </UserObject>
        <UserObject label="Availability Zone A" lucidchartObjectId="ZyE45cjU5PgE" id="QVgjg6RMbLNZTQpQtQ4s-19">
          <mxCell style="html=1;whiteSpace=wrap;verticalAlign=top;fillColor=none;fillOpacity=100;dashed=1;dashPattern=5 5;fontColor=#0E82B8;strokeOpacity=100;strokeColor=#147eba;fontSize=9;fontStyle=1;spacing=0;" parent="1" vertex="1">
            <mxGeometry x="238" y="277" width="237" height="481" as="geometry" />
          </mxCell>
        </UserObject>
        <UserObject label="Availability Zone B" lucidchartObjectId="ZyE4v5HxSAWs" id="QVgjg6RMbLNZTQpQtQ4s-20">
          <mxCell style="html=1;whiteSpace=wrap;verticalAlign=top;fillColor=none;fillOpacity=100;dashed=1;dashPattern=5 5;fontColor=#0E82B8;strokeOpacity=100;strokeColor=#147eba;fontSize=9;fontStyle=1;spacing=0;" parent="1" vertex="1">
            <mxGeometry x="584" y="277" width="237" height="481" as="geometry" />
          </mxCell>
        </UserObject>
        <UserObject label="Resources and Static Content" lucidchartObjectId="ZyE4INKm.Qgx" id="QVgjg6RMbLNZTQpQtQ4s-21">
          <mxCell style="html=1;whiteSpace=wrap;shape=mxgraph.aws4.resourceIcon;resIcon=mxgraph.aws4.s3;labelPosition=center;verticalLabelPosition=bottom;align=center;verticalAlign=top;strokeColor=#ffffff;fontSize=9;fontColor=#666666;spacing=0;strokeOpacity=100;fillColor=#3f8624;" parent="1" vertex="1">
            <mxGeometry x="849" y="230" width="42" height="44" as="geometry" />
          </mxCell>
        </UserObject>
        <UserObject label="ELB" lucidchartObjectId="ZyE4ia8e-gKq" id="QVgjg6RMbLNZTQpQtQ4s-22">
          <mxCell style="html=1;whiteSpace=wrap;shape=mxgraph.aws4.resourceIcon;resIcon=mxgraph.aws4.elastic_load_balancing;verticalLabelPosition=bottom;align=center;verticalAlign=top;strokeColor=#ffffff;fontSize=9;fontColor=#666666;spacing=0;strokeOpacity=100;fillColor=#d86613;" parent="1" vertex="1">
            <mxGeometry x="510" y="316" width="40" height="40" as="geometry" />
          </mxCell>
        </UserObject>
        <mxCell id="QVgjg6RMbLNZTQpQtQ4s-23" value="" style="html=1;whiteSpace=wrap;fontSize=11;spacing=0;strokeOpacity=100;fillOpacity=0;fillColor=#000000;" parent="1" vertex="1">
          <mxGeometry x="597" y="348" width="212" height="130" as="geometry" />
        </mxCell>
        <UserObject label="" lucidchartObjectId="ZyE4hBUMD6-r" id="QVgjg6RMbLNZTQpQtQ4s-24">
          <mxCell style="html=1;whiteSpace=wrap;shape=mxgraph.aws4.group;grIcon=mxgraph.aws4.group_security_group;grStroke=0;verticalAlign=top;align=left;spacingLeft=30;strokeColor=#2C8723;fontColor=#2C8723;fillOpacity=13;fillColor=#248814;fontSize=11;spacing=0;strokeOpacity=100;part=1;" parent="QVgjg6RMbLNZTQpQtQ4s-23" vertex="1">
            <mxGeometry width="212" height="130" as="geometry" />
          </mxCell>
        </UserObject>
        <UserObject label="ELB" lucidchartObjectId="ZyE4j_fVy4Ns" id="QVgjg6RMbLNZTQpQtQ4s-25">
          <mxCell style="html=1;whiteSpace=wrap;shape=mxgraph.aws4.resourceIcon;resIcon=mxgraph.aws4.elastic_load_balancing;verticalLabelPosition=bottom;align=center;verticalAlign=top;strokeColor=#ffffff;fontSize=9;fontColor=#666666;spacing=0;strokeOpacity=100;fillColor=#d86613;" parent="1" vertex="1">
            <mxGeometry x="510" y="478" width="40" height="40" as="geometry" />
          </mxCell>
        </UserObject>
        <mxCell id="QVgjg6RMbLNZTQpQtQ4s-26" value="" style="group;dropTarget=0;" parent="1" vertex="1">
          <mxGeometry x="291" y="398" width="40" height="40" as="geometry" />
        </mxCell>
        <UserObject label="" lucidchartObjectId="ZyE4RAXpGc61" id="QVgjg6RMbLNZTQpQtQ4s-27">
          <mxCell style="html=1;whiteSpace=wrap;shape=mxgraph.aws4.instance2;labelPosition=center;verticalLabelPosition=bottom;align=center;verticalAlign=top;strokeColor=none;fontSize=11;spacing=0;strokeOpacity=100;fillColor=#d86613;" parent="QVgjg6RMbLNZTQpQtQ4s-26" vertex="1">
            <mxGeometry width="40" height="40" as="geometry" />
          </mxCell>
        </UserObject>
        <UserObject label="" lucidchartObjectId="ZyE4ehCL31AR" id="QVgjg6RMbLNZTQpQtQ4s-28">
          <mxCell style="html=1;jettySize=18;fontSize=11;strokeColor=#666666;strokeOpacity=100;rounded=1;arcSize=24;edgeStyle=orthogonalEdgeStyle;startArrow=none;;endArrow=none;;exitX=1.0784361873772136e-16;exitY=0.49999999999999967;exitPerimeter=1;entryX=0.5;entryY=0;entryPerimeter=1;" parent="1" source="QVgjg6RMbLNZTQpQtQ4s-22" target="QVgjg6RMbLNZTQpQtQ4s-27" edge="1">
            <mxGeometry width="100" height="100" relative="1" as="geometry">
              <Array as="points" />
            </mxGeometry>
          </mxCell>
        </UserObject>
        <UserObject label="" lucidchartObjectId="ZyE4c_P3Ufc7" id="QVgjg6RMbLNZTQpQtQ4s-29">
          <mxCell style="html=1;whiteSpace=wrap;shape=mxgraph.aws4.users;labelPosition=center;verticalLabelPosition=bottom;align=center;verticalAlign=top;strokeColor=none;fontSize=11;spacing=0;strokeOpacity=100;fillOpacity=100;fillColor=#666666;" parent="1" vertex="1">
            <mxGeometry x="418" y="114" width="40" height="40" as="geometry" />
          </mxCell>
        </UserObject>
        <mxCell id="QVgjg6RMbLNZTQpQtQ4s-30" value="" style="group;dropTarget=0;" parent="1" vertex="1">
          <mxGeometry x="630" y="348" width="69" height="22" as="geometry" />
        </mxCell>
        <UserObject label="Public Subnet 2" lucidchartObjectId="ZyE4axDVwR7x" id="QVgjg6RMbLNZTQpQtQ4s-31">
          <mxCell style="html=1;whiteSpace=wrap;;fontSize=8;fontColor=#666666;fontStyle=1;align=left;spacing=3;verticalAlign=middle;strokeOpacity=0;fillOpacity=0;fillColor=#ffffff;" parent="QVgjg6RMbLNZTQpQtQ4s-30" vertex="1">
            <mxGeometry width="69" height="12" as="geometry" />
          </mxCell>
        </UserObject>
        <UserObject label="10.0.1.0/24" lucidchartObjectId="ZyE4QxFfmRvP" id="QVgjg6RMbLNZTQpQtQ4s-32">
          <mxCell style="html=1;whiteSpace=wrap;;fontSize=8;fontColor=#666666;align=left;spacing=3;verticalAlign=middle;strokeOpacity=0;fillOpacity=0;fillColor=#ffffff;" parent="QVgjg6RMbLNZTQpQtQ4s-30" vertex="1">
            <mxGeometry y="11" width="58" height="11" as="geometry" />
          </mxCell>
        </UserObject>
        <UserObject label="DNS Resolution" lucidchartObjectId="ZyE4KtMX.42l" id="QVgjg6RMbLNZTQpQtQ4s-33">
          <mxCell style="html=1;whiteSpace=wrap;;fontSize=9;fontColor=#666666;spacing=3;strokeOpacity=0;fillOpacity=0;fillColor=#ffffff;" parent="1" vertex="1">
            <mxGeometry x="485" y="199" width="89" height="16" as="geometry" />
          </mxCell>
        </UserObject>
        <UserObject label="Web Servers" lucidchartObjectId="ZyE4AVuAXfrP" id="QVgjg6RMbLNZTQpQtQ4s-34">
          <mxCell style="html=1;whiteSpace=wrap;;fontSize=9;fontColor=#666666;spacing=3;strokeOpacity=0;fillOpacity=0;fillColor=#ffffff;" parent="1" vertex="1">
            <mxGeometry x="276" y="439" width="70" height="12" as="geometry" />
          </mxCell>
        </UserObject>
        <UserObject label="" lucidchartObjectId="ZyE4sDo.5fip" id="QVgjg6RMbLNZTQpQtQ4s-35">
          <mxCell style="html=1;whiteSpace=wrap;shape=mxgraph.aws4.resourceIcon;resIcon=mxgraph.aws4.route_53;labelPosition=center;verticalLabelPosition=bottom;align=center;verticalAlign=top;strokeColor=#ffffff;fontSize=11;spacing=0;strokeOpacity=100;fillColor=#693cc5;" parent="1" vertex="1">
            <mxGeometry x="509" y="160" width="40" height="40" as="geometry" />
          </mxCell>
        </UserObject>
        <UserObject label="" lucidchartObjectId="ZyE4_QcsYHln" id="QVgjg6RMbLNZTQpQtQ4s-36">
          <mxCell style="html=1;jettySize=18;fontSize=11;strokeColor=#666666;strokeOpacity=100;rounded=1;arcSize=24;edgeStyle=orthogonalEdgeStyle;startArrow=none;;endArrow=none;;exitX=0.5;exitY=0.999999990657311;exitPerimeter=1;entryX=0.5028640796807126;entryY=0;entryPerimeter=1;" parent="1" source="QVgjg6RMbLNZTQpQtQ4s-66" target="QVgjg6RMbLNZTQpQtQ4s-22" edge="1">
            <mxGeometry width="100" height="100" relative="1" as="geometry">
              <Array as="points" />
            </mxGeometry>
          </mxCell>
        </UserObject>
        <UserObject label="10.0.0.0/16" lucidchartObjectId="ZyE43Vn4hEtU" id="QVgjg6RMbLNZTQpQtQ4s-37">
          <mxCell style="html=1;whiteSpace=wrap;;fontSize=9;fontColor=#666666;align=left;spacing=3;verticalAlign=middle;strokeOpacity=0;fillOpacity=0;fillColor=#ffffff;" parent="1" vertex="1">
            <mxGeometry x="181" y="324" width="60" height="11" as="geometry" />
          </mxCell>
        </UserObject>
        <UserObject label="" lucidchartObjectId="ZyE4HLhWYkgI" id="QVgjg6RMbLNZTQpQtQ4s-38">
          <mxCell style="html=1;jettySize=18;fontSize=11;strokeColor=#666666;strokeOpacity=100;rounded=1;arcSize=24;edgeStyle=orthogonalEdgeStyle;startArrow=none;;endArrow=none;;exitX=1.000000001773236;exitY=0.5000000000000002;exitPerimeter=1;entryX=0.5000000000000007;entryY=1.0784361873732772e-16;entryPerimeter=1;" parent="1" source="QVgjg6RMbLNZTQpQtQ4s-29" target="QVgjg6RMbLNZTQpQtQ4s-35" edge="1">
            <mxGeometry width="100" height="100" relative="1" as="geometry">
              <Array as="points" />
            </mxGeometry>
          </mxCell>
        </UserObject>
        <UserObject label="" lucidchartObjectId="ZyE41c8WnD6." id="QVgjg6RMbLNZTQpQtQ4s-39">
          <mxCell style="html=1;whiteSpace=wrap;shape=mxgraph.aws4.users;labelPosition=center;verticalLabelPosition=bottom;align=center;verticalAlign=top;strokeColor=none;fontSize=11;spacing=0;strokeOpacity=100;fillOpacity=100;fillColor=#666666;" parent="1" vertex="1">
            <mxGeometry x="601" y="114" width="40" height="40" as="geometry" />
          </mxCell>
        </UserObject>
        <UserObject label="" lucidchartObjectId="ZyE43OfRoB9h" id="QVgjg6RMbLNZTQpQtQ4s-40">
          <mxCell style="html=1;jettySize=18;fontSize=11;strokeColor=#666666;strokeOpacity=100;rounded=1;arcSize=24;edgeStyle=orthogonalEdgeStyle;startArrow=none;;endArrow=none;;exitX=0;exitY=0.5000000000000002;exitPerimeter=1;entryX=0.5000000000000007;entryY=1.0784361873732772e-16;entryPerimeter=1;" parent="1" source="QVgjg6RMbLNZTQpQtQ4s-39" target="QVgjg6RMbLNZTQpQtQ4s-35" edge="1">
            <mxGeometry width="100" height="100" relative="1" as="geometry">
              <Array as="points" />
            </mxGeometry>
          </mxCell>
        </UserObject>
        <mxCell id="QVgjg6RMbLNZTQpQtQ4s-41" value="" style="group;dropTarget=0;" parent="1" vertex="1">
          <mxGeometry x="286" y="348" width="69" height="22" as="geometry" />
        </mxCell>
        <UserObject label="Public&amp;nbsp;Subnet 1" lucidchartObjectId="ZyE4A27On2GJ" id="QVgjg6RMbLNZTQpQtQ4s-42">
          <mxCell style="html=1;whiteSpace=wrap;;fontSize=8;fontColor=#666666;fontStyle=1;align=left;spacing=3;verticalAlign=middle;strokeOpacity=0;fillOpacity=0;fillColor=#ffffff;" parent="QVgjg6RMbLNZTQpQtQ4s-41" vertex="1">
            <mxGeometry width="69" height="12" as="geometry" />
          </mxCell>
        </UserObject>
        <UserObject label="10.0.0.0/24" lucidchartObjectId="ZyE4yJ_qk2ub" id="QVgjg6RMbLNZTQpQtQ4s-43">
          <mxCell style="html=1;whiteSpace=wrap;;fontSize=8;fontColor=#666666;align=left;spacing=3;verticalAlign=middle;strokeOpacity=0;fillOpacity=0;fillColor=#ffffff;" parent="QVgjg6RMbLNZTQpQtQ4s-41" vertex="1">
            <mxGeometry y="11" width="58" height="11" as="geometry" />
          </mxCell>
        </UserObject>
        <UserObject label="" lucidchartObjectId="ZyE40Z_H1dQl" id="QVgjg6RMbLNZTQpQtQ4s-44">
          <mxCell style="html=1;jettySize=18;fontSize=11;strokeColor=#666666;strokeOpacity=100;rounded=1;arcSize=24;edgeStyle=orthogonalEdgeStyle;startArrow=none;;endArrow=none;;exitX=0.9999999934949614;exitY=0.4999999999999999;exitPerimeter=1;entryX=0;entryY=0.5000000000000001;entryPerimeter=1;" parent="1" source="QVgjg6RMbLNZTQpQtQ4s-65" target="QVgjg6RMbLNZTQpQtQ4s-21" edge="1">
            <mxGeometry width="100" height="100" relative="1" as="geometry">
              <Array as="points" />
            </mxGeometry>
          </mxCell>
        </UserObject>
        <UserObject label="" lucidchartObjectId="ZyE4BMWwjzz7" id="QVgjg6RMbLNZTQpQtQ4s-45">
          <mxCell style="html=1;jettySize=18;fontSize=11;strokeColor=#666666;strokeOpacity=100;rounded=1;arcSize=24;edgeStyle=orthogonalEdgeStyle;startArrow=none;;endArrow=none;;exitX=1.0000000017768849;exitY=0.4999999999999991;exitPerimeter=1;entryX=0.5000000000000002;entryY=0;entryPerimeter=1;" parent="1" source="QVgjg6RMbLNZTQpQtQ4s-22" target="QVgjg6RMbLNZTQpQtQ4s-68" edge="1">
            <mxGeometry width="100" height="100" relative="1" as="geometry">
              <Array as="points" />
            </mxGeometry>
          </mxCell>
        </UserObject>
        <mxCell id="QVgjg6RMbLNZTQpQtQ4s-46" value="" style="html=1;whiteSpace=wrap;fontSize=11;align=center;spacing=0;strokeOpacity=0;fillOpacity=0;fillColor=#000000;" parent="1" vertex="1">
          <mxGeometry x="252" y="790" width="224" height="80" as="geometry" />
        </mxCell>
        <UserObject label="" lucidchartObjectId="ZyE4ujxFACly" id="QVgjg6RMbLNZTQpQtQ4s-47">
          <mxCell style="html=1;whiteSpace=wrap;shape=mxgraph.aws4.group;grIcon=mxgraph.aws4.group_security_group;grStroke=0;verticalAlign=top;align=left;spacingLeft=30;strokeColor=#0E82B8;fontColor=#0E82B8;fillOpacity=13;fillColor=#147eba;fontSize=11;spacing=0;strokeOpacity=0;part=1;" parent="QVgjg6RMbLNZTQpQtQ4s-46" vertex="1">
            <mxGeometry width="224" height="80" as="geometry" />
          </mxCell>
        </UserObject>
        <UserObject label="10.0.4.0/24" lucidchartObjectId="ZyE4h_SOjPHu" id="QVgjg6RMbLNZTQpQtQ4s-58">
          <mxCell style="html=1;whiteSpace=wrap;;fontSize=8;fontColor=#666666;align=left;spacing=3;verticalAlign=middle;strokeOpacity=0;fillOpacity=0;fillColor=#ffffff;" parent="QVgjg6RMbLNZTQpQtQ4s-46" vertex="1">
            <mxGeometry x="29" y="20" width="60" height="11" as="geometry" />
          </mxCell>
        </UserObject>
        <UserObject label="" lucidchartObjectId="ZyE4hKGmICNB" id="QVgjg6RMbLNZTQpQtQ4s-48">
          <mxCell style="html=1;jettySize=18;fontSize=11;strokeColor=#666666;strokeOpacity=100;dashed=1;rounded=1;arcSize=24;edgeStyle=orthogonalEdgeStyle;startArrow=none;;endArrow=block;endFill=1;;exitX=1.000000001773236;exitY=0.5;exitPerimeter=1;entryX=0;entryY=0.5;entryPerimeter=1;" parent="1" source="QVgjg6RMbLNZTQpQtQ4s-52" target="QVgjg6RMbLNZTQpQtQ4s-55" edge="1">
            <mxGeometry width="100" height="100" relative="1" as="geometry">
              <Array as="points" />
            </mxGeometry>
          </mxCell>
        </UserObject>
        <mxCell id="QVgjg6RMbLNZTQpQtQ4s-49" value="&lt;div style=&quot;font-size:9px;color:#666666;text-align: center;&quot;&gt;Synchronous&#xa;&lt;/div&gt;&lt;div style=&quot;font-size:9px;color:#666666;text-align: center;&quot;&gt;Replication&lt;/div&gt;" style="text;html=1;resizable=0;labelBackgroundColor=#ffffff;align=center;verticalAlign=middle;fontColor=#666666;;fontSize=9.333333333333334;" parent="QVgjg6RMbLNZTQpQtQ4s-48" vertex="1">
          <mxGeometry relative="1" as="geometry" />
        </mxCell>
        <mxCell id="QVgjg6RMbLNZTQpQtQ4s-53" value="" style="group;dropTarget=0;" parent="1" vertex="1">
          <mxGeometry x="641.5" y="660" width="123" height="56" as="geometry" />
        </mxCell>
        <UserObject label="Amazon RDS Multi-AZ" lucidchartObjectId="ZyE433hzRrrJ" id="QVgjg6RMbLNZTQpQtQ4s-54">
          <mxCell style="html=1;whiteSpace=wrap;;fontSize=9;fontColor=#666666;spacing=3;strokeOpacity=0;fillOpacity=0;fillColor=#ffffff;" parent="QVgjg6RMbLNZTQpQtQ4s-53" vertex="1">
            <mxGeometry y="40" width="123" height="16" as="geometry" />
          </mxCell>
        </UserObject>
        <UserObject label="" lucidchartObjectId="ZyE49M4g81yQ" id="QVgjg6RMbLNZTQpQtQ4s-55">
          <mxCell style="html=1;whiteSpace=wrap;shape=mxgraph.aws4.resourceIcon;resIcon=mxgraph.aws4.rds;verticalLabelPosition=bottom;align=center;verticalAlign=top;strokeColor=#ffffff;fontSize=11;spacing=0;strokeOpacity=100;fillColor=#3b48cc;" parent="QVgjg6RMbLNZTQpQtQ4s-53" vertex="1">
            <mxGeometry x="42" width="40" height="40" as="geometry" />
          </mxCell>
        </UserObject>
        <mxCell id="QVgjg6RMbLNZTQpQtQ4s-59" value="" style="html=1;whiteSpace=wrap;fontSize=11;align=center;spacing=0;strokeOpacity=0;fillOpacity=0;fillColor=#000000;" parent="1" vertex="1">
          <mxGeometry x="584" y="800" width="224" height="80" as="geometry" />
        </mxCell>
        <UserObject label="" lucidchartObjectId="ZyE4pqZ0fJlJ" id="QVgjg6RMbLNZTQpQtQ4s-60">
          <mxCell style="html=1;whiteSpace=wrap;shape=mxgraph.aws4.group;grIcon=mxgraph.aws4.group_security_group;grStroke=0;verticalAlign=top;align=left;spacingLeft=30;strokeColor=#0E82B8;fontColor=#0E82B8;fillOpacity=13;fillColor=#147eba;fontSize=11;spacing=0;strokeOpacity=0;part=1;" parent="QVgjg6RMbLNZTQpQtQ4s-59" vertex="1">
            <mxGeometry width="224" height="80" as="geometry" />
          </mxCell>
        </UserObject>
        <mxCell id="QVgjg6RMbLNZTQpQtQ4s-64" value="" style="group;dropTarget=0;" parent="1" vertex="1">
          <mxGeometry x="495" y="230" width="69" height="60" as="geometry" />
        </mxCell>
        <UserObject label="" lucidchartObjectId="ZyE4HXlMvsA3" id="QVgjg6RMbLNZTQpQtQ4s-65">
          <mxCell style="html=1;whiteSpace=wrap;shape=mxgraph.aws4.resourceIcon;resIcon=mxgraph.aws4.networking_and_content_delivery;labelPosition=center;verticalLabelPosition=bottom;align=center;verticalAlign=top;fontSize=11;spacing=0;strokeOpacity=0;fillColor=#693cc5;" parent="QVgjg6RMbLNZTQpQtQ4s-64" vertex="1">
            <mxGeometry x="13" width="44" height="44" as="geometry" />
          </mxCell>
        </UserObject>
        <UserObject label="CDN" lucidchartObjectId="ZyE4mYBuBtdy" id="QVgjg6RMbLNZTQpQtQ4s-66">
          <mxCell style="html=1;whiteSpace=wrap;;fontSize=9;fontColor=#666666;spacing=3;strokeOpacity=0;fillOpacity=0;fillColor=#ffffff;" parent="QVgjg6RMbLNZTQpQtQ4s-64" vertex="1">
            <mxGeometry y="44" width="69" height="16" as="geometry" />
          </mxCell>
        </UserObject>
        <mxCell id="QVgjg6RMbLNZTQpQtQ4s-67" value="" style="group;dropTarget=0;" parent="1" vertex="1">
          <mxGeometry x="682" y="399" width="40" height="40" as="geometry" />
        </mxCell>
        <UserObject label="" lucidchartObjectId="ZyE4BK1M3EZu" id="QVgjg6RMbLNZTQpQtQ4s-68">
          <mxCell style="html=1;whiteSpace=wrap;shape=mxgraph.aws4.instance2;labelPosition=center;verticalLabelPosition=bottom;align=center;verticalAlign=top;strokeColor=none;fontSize=11;spacing=0;strokeOpacity=100;fillColor=#d86613;" parent="QVgjg6RMbLNZTQpQtQ4s-67" vertex="1">
            <mxGeometry width="40" height="40" as="geometry" />
          </mxCell>
        </UserObject>
        <UserObject label="Web Servers" lucidchartObjectId="ZyE4cJkKtVGJ" id="QVgjg6RMbLNZTQpQtQ4s-69">
          <mxCell style="html=1;whiteSpace=wrap;;fontSize=9;fontColor=#666666;spacing=3;strokeOpacity=0;fillOpacity=0;fillColor=#ffffff;" parent="1" vertex="1">
            <mxGeometry x="667" y="439" width="70" height="12" as="geometry" />
          </mxCell>
        </UserObject>
        <UserObject label="" lucidchartObjectId="ZyE4hEWeZA74" id="QVgjg6RMbLNZTQpQtQ4s-70">
          <mxCell style="html=1;jettySize=18;overflow=width;html=1;strokeColor=#666666;strokeOpacity=100;rounded=1;arcSize=24;edgeStyle=orthogonalEdgeStyle;startArrow=none;;endArrow=none;;exitX=0.4999999999999997;exitY=0.999999990657311;exitPerimeter=1;entryX=0.4907304983720796;entryY=0;entryPerimeter=1;" parent="1" source="QVgjg6RMbLNZTQpQtQ4s-33" target="QVgjg6RMbLNZTQpQtQ4s-65" edge="1">
            <mxGeometry width="100" height="100" relative="1" as="geometry">
              <Array as="points" />
            </mxGeometry>
          </mxCell>
        </UserObject>
        <mxCell id="QVgjg6RMbLNZTQpQtQ4s-71" value="" style="html=1;whiteSpace=wrap;fontSize=11;spacing=0;strokeOpacity=100;fillOpacity=0;fillColor=#000000;" parent="1" vertex="1">
          <mxGeometry x="254" y="500" width="209.005" height="236" as="geometry" />
        </mxCell>
        <UserObject label="" lucidchartObjectId="ZyE4mOqMOByq" id="QVgjg6RMbLNZTQpQtQ4s-72">
          <mxCell style="html=1;whiteSpace=wrap;shape=mxgraph.aws4.group;grIcon=mxgraph.aws4.group_security_group;grStroke=0;verticalAlign=top;align=left;spacingLeft=30;strokeColor=#2C8723;fontColor=#2C8723;fillOpacity=13;fillColor=#248814;fontSize=11;spacing=0;strokeOpacity=100;part=1;" parent="QVgjg6RMbLNZTQpQtQ4s-71" vertex="1">
            <mxGeometry width="209" height="236" as="geometry" />
          </mxCell>
        </UserObject>
        <mxCell id="QVgjg6RMbLNZTQpQtQ4s-50" value="" style="group;dropTarget=0;" parent="QVgjg6RMbLNZTQpQtQ4s-71" vertex="1">
          <mxGeometry x="60" y="160" width="110.85" height="63.42" as="geometry" />
        </mxCell>
        <UserObject label="Amazon RDS Primary" lucidchartObjectId="ZyE4Djm~c0ZD" id="QVgjg6RMbLNZTQpQtQ4s-51">
          <mxCell style="html=1;whiteSpace=wrap;;fontSize=9;fontColor=#666666;spacing=3;strokeOpacity=0;fillOpacity=0;fillColor=#ffffff;" parent="QVgjg6RMbLNZTQpQtQ4s-50" vertex="1">
            <mxGeometry y="45.3" width="110.85" height="18.12" as="geometry" />
          </mxCell>
        </UserObject>
        <UserObject label="" lucidchartObjectId="ZyE4fbz4qcvy" id="QVgjg6RMbLNZTQpQtQ4s-52">
          <mxCell style="html=1;whiteSpace=wrap;shape=mxgraph.aws4.resourceIcon;resIcon=mxgraph.aws4.rds;verticalLabelPosition=bottom;align=center;verticalAlign=top;strokeColor=#ffffff;fontSize=11;spacing=0;strokeOpacity=100;fillColor=#3b48cc;" parent="QVgjg6RMbLNZTQpQtQ4s-71" vertex="1">
            <mxGeometry x="86.5" y="160" width="43" height="45.3" as="geometry" />
          </mxCell>
        </UserObject>
        <mxCell id="QVgjg6RMbLNZTQpQtQ4s-73" value="" style="html=1;whiteSpace=wrap;fontSize=11;spacing=0;strokeOpacity=100;fillOpacity=0;fillColor=#000000;" parent="1" vertex="1">
          <mxGeometry x="597" y="504" width="213" height="226" as="geometry" />
        </mxCell>
        <UserObject label="" lucidchartObjectId="ZyE4QVCyW2hh" id="QVgjg6RMbLNZTQpQtQ4s-74">
          <mxCell style="html=1;whiteSpace=wrap;shape=mxgraph.aws4.group;grIcon=mxgraph.aws4.group_security_group;grStroke=0;verticalAlign=top;align=left;spacingLeft=30;strokeColor=#2C8723;fontColor=#2C8723;fillOpacity=13;fillColor=#248814;fontSize=11;spacing=0;strokeOpacity=100;part=1;" parent="QVgjg6RMbLNZTQpQtQ4s-73" vertex="1">
            <mxGeometry width="213" height="226" as="geometry" />
          </mxCell>
        </UserObject>
        <mxCell id="QVgjg6RMbLNZTQpQtQ4s-75" value="" style="group;dropTarget=0;" parent="1" vertex="1">
          <mxGeometry x="342" y="555" width="40" height="40" as="geometry" />
        </mxCell>
        <UserObject label="" lucidchartObjectId="ZyE4W7wNqc8I" id="QVgjg6RMbLNZTQpQtQ4s-76">
          <mxCell style="html=1;whiteSpace=wrap;shape=mxgraph.aws4.instance2;labelPosition=center;verticalLabelPosition=bottom;align=center;verticalAlign=top;strokeColor=none;fontSize=11;spacing=0;strokeOpacity=100;fillColor=#d86613;" parent="QVgjg6RMbLNZTQpQtQ4s-75" vertex="1">
            <mxGeometry width="40" height="40" as="geometry" />
          </mxCell>
        </UserObject>
        <mxCell id="QVgjg6RMbLNZTQpQtQ4s-77" value="" style="group;dropTarget=0;" parent="1" vertex="1">
          <mxGeometry x="630" y="505" width="69" height="21" as="geometry" />
        </mxCell>
        <UserObject label="Private Subnet 2" lucidchartObjectId="ZyE4rmGRxnL3" id="QVgjg6RMbLNZTQpQtQ4s-78">
          <mxCell style="html=1;whiteSpace=wrap;;fontSize=8;fontColor=#666666;fontStyle=1;align=left;spacing=3;verticalAlign=middle;strokeOpacity=0;fillOpacity=0;fillColor=#ffffff;" parent="QVgjg6RMbLNZTQpQtQ4s-77" vertex="1">
            <mxGeometry width="69" height="12" as="geometry" />
          </mxCell>
        </UserObject>
        <UserObject label="10.0.3.0/24" lucidchartObjectId="ZyE4lQtfI0N2" id="QVgjg6RMbLNZTQpQtQ4s-79">
          <mxCell style="html=1;whiteSpace=wrap;;fontSize=8;fontColor=#666666;align=left;spacing=3;verticalAlign=middle;strokeOpacity=0;fillOpacity=0;fillColor=#ffffff;" parent="QVgjg6RMbLNZTQpQtQ4s-77" vertex="1">
            <mxGeometry y="10" width="58" height="11" as="geometry" />
          </mxCell>
        </UserObject>
        <UserObject label="App Servers" lucidchartObjectId="ZyE4JRY_vnnu" id="QVgjg6RMbLNZTQpQtQ4s-80">
          <mxCell style="html=1;whiteSpace=wrap;;fontSize=9;fontColor=#666666;spacing=3;strokeOpacity=0;fillOpacity=0;fillColor=#ffffff;" parent="1" vertex="1">
            <mxGeometry x="327" y="595" width="70" height="12" as="geometry" />
          </mxCell>
        </UserObject>
        <mxCell id="QVgjg6RMbLNZTQpQtQ4s-81" value="" style="group;dropTarget=0;" parent="1" vertex="1">
          <mxGeometry x="285" y="505" width="69" height="21" as="geometry" />
        </mxCell>
        <UserObject label="Private Subnet 1" lucidchartObjectId="ZyE4~GGlZlxJ" id="QVgjg6RMbLNZTQpQtQ4s-82">
          <mxCell style="html=1;whiteSpace=wrap;;fontSize=8;fontColor=#666666;fontStyle=1;align=left;spacing=3;verticalAlign=middle;strokeOpacity=0;fillOpacity=0;fillColor=#ffffff;" parent="QVgjg6RMbLNZTQpQtQ4s-81" vertex="1">
            <mxGeometry width="69" height="12" as="geometry" />
          </mxCell>
        </UserObject>
        <UserObject label="10.0.2.0/24" lucidchartObjectId="ZyE4BE-j6KGb" id="QVgjg6RMbLNZTQpQtQ4s-83">
          <mxCell style="html=1;whiteSpace=wrap;;fontSize=8;fontColor=#666666;align=left;spacing=3;verticalAlign=middle;strokeOpacity=0;fillOpacity=0;fillColor=#ffffff;" parent="QVgjg6RMbLNZTQpQtQ4s-81" vertex="1">
            <mxGeometry y="10" width="58" height="11" as="geometry" />
          </mxCell>
        </UserObject>
        <mxCell id="QVgjg6RMbLNZTQpQtQ4s-84" value="" style="group;dropTarget=0;" parent="1" vertex="1">
          <mxGeometry x="681" y="555" width="40" height="40" as="geometry" />
        </mxCell>
        <UserObject label="" lucidchartObjectId="ZyE4t.BIDXYZ" id="QVgjg6RMbLNZTQpQtQ4s-85">
          <mxCell style="html=1;whiteSpace=wrap;shape=mxgraph.aws4.instance2;labelPosition=center;verticalLabelPosition=bottom;align=center;verticalAlign=top;strokeColor=none;fontSize=11;spacing=0;strokeOpacity=100;fillColor=#d86613;" parent="QVgjg6RMbLNZTQpQtQ4s-84" vertex="1">
            <mxGeometry width="40" height="40" as="geometry" />
          </mxCell>
        </UserObject>
        <UserObject label="App Servers" lucidchartObjectId="ZyE4UZB6~oF0" id="QVgjg6RMbLNZTQpQtQ4s-86">
          <mxCell style="html=1;whiteSpace=wrap;;fontSize=9;fontColor=#666666;spacing=3;strokeOpacity=0;fillOpacity=0;fillColor=#ffffff;" parent="1" vertex="1">
            <mxGeometry x="667" y="595" width="70" height="12" as="geometry" />
          </mxCell>
        </UserObject>
        <UserObject label="" lucidchartObjectId="ZyE48GY5Uw-G" id="QVgjg6RMbLNZTQpQtQ4s-87">
          <mxCell style="html=1;jettySize=18;overflow=width;html=1;strokeColor=#666666;strokeOpacity=100;rounded=1;arcSize=24;edgeStyle=orthogonalEdgeStyle;startArrow=none;;endArrow=none;;exitX=0;exitY=0.33370407639298405;exitPerimeter=1;entryX=0.5000000000000002;entryY=0;entryPerimeter=1;" parent="1" source="QVgjg6RMbLNZTQpQtQ4s-25" target="QVgjg6RMbLNZTQpQtQ4s-76" edge="1">
            <mxGeometry width="100" height="100" relative="1" as="geometry">
              <Array as="points" />
            </mxGeometry>
          </mxCell>
        </UserObject>
        <UserObject label="" lucidchartObjectId="ZyE4reqk0Jr1" id="QVgjg6RMbLNZTQpQtQ4s-88">
          <mxCell style="html=1;jettySize=18;overflow=width;html=1;strokeColor=#666666;strokeOpacity=100;rounded=1;arcSize=24;edgeStyle=orthogonalEdgeStyle;startArrow=none;;endArrow=none;;exitX=1.0000000017768849;exitY=0.337631669208657;exitPerimeter=1;entryX=0.5000000000000002;entryY=0;entryPerimeter=1;" parent="1" source="QVgjg6RMbLNZTQpQtQ4s-25" target="QVgjg6RMbLNZTQpQtQ4s-85" edge="1">
            <mxGeometry width="100" height="100" relative="1" as="geometry">
              <Array as="points" />
            </mxGeometry>
          </mxCell>
        </UserObject>
        <UserObject label="" lucidchartObjectId="ZyE4jYhduaU9" id="QVgjg6RMbLNZTQpQtQ4s-89">
          <mxCell style="html=1;jettySize=18;overflow=width;html=1;strokeColor=#666666;strokeOpacity=100;rounded=1;arcSize=24;edgeStyle=orthogonalEdgeStyle;startArrow=none;;endArrow=none;;exitX=0.5189455883607974;exitY=0;exitPerimeter=1;entryX=0.4999999999999996;entryY=1;entryPerimeter=1;" parent="1" source="QVgjg6RMbLNZTQpQtQ4s-52" target="QVgjg6RMbLNZTQpQtQ4s-86" edge="1">
            <mxGeometry width="100" height="100" relative="1" as="geometry">
              <Array as="points" />
            </mxGeometry>
          </mxCell>
        </UserObject>
        <UserObject label="" lucidchartObjectId="ZyE4~GM5kk9d" id="QVgjg6RMbLNZTQpQtQ4s-90">
          <mxCell style="html=1;jettySize=18;overflow=width;html=1;strokeColor=#666666;strokeOpacity=100;rounded=1;arcSize=24;edgeStyle=orthogonalEdgeStyle;startArrow=none;;endArrow=none;;exitX=0.4999999999999996;exitY=1;exitPerimeter=1;entryX=0.5;entryY=0;entryPerimeter=1;" parent="1" source="QVgjg6RMbLNZTQpQtQ4s-34" target="QVgjg6RMbLNZTQpQtQ4s-25" edge="1">
            <mxGeometry width="100" height="100" relative="1" as="geometry">
              <Array as="points" />
            </mxGeometry>
          </mxCell>
        </UserObject>
        <UserObject label="" lucidchartObjectId="ZyE4KxFiNik9" id="QVgjg6RMbLNZTQpQtQ4s-91">
          <mxCell style="html=1;jettySize=18;overflow=width;html=1;strokeColor=#666666;strokeOpacity=100;rounded=1;arcSize=24;edgeStyle=orthogonalEdgeStyle;startArrow=none;;endArrow=none;;exitX=0.5;exitY=0;exitPerimeter=1;entryX=0.4999999999999996;entryY=1;entryPerimeter=1;" parent="1" source="QVgjg6RMbLNZTQpQtQ4s-25" target="QVgjg6RMbLNZTQpQtQ4s-69" edge="1">
            <mxGeometry width="100" height="100" relative="1" as="geometry">
              <Array as="points" />
            </mxGeometry>
          </mxCell>
        </UserObject>
        <UserObject label="" lucidchartObjectId="ZyE44Zs9qzfg" id="QVgjg6RMbLNZTQpQtQ4s-92">
          <mxCell style="html=1;jettySize=18;overflow=width;html=1;strokeColor=#666666;strokeOpacity=100;rounded=1;arcSize=24;edgeStyle=orthogonalEdgeStyle;startArrow=none;;endArrow=none;;exitX=0.4999999999999996;exitY=1;exitPerimeter=1;entryX=0.5189455883607974;entryY=0;entryPerimeter=1;" parent="1" source="QVgjg6RMbLNZTQpQtQ4s-80" target="QVgjg6RMbLNZTQpQtQ4s-52" edge="1">
            <mxGeometry width="100" height="100" relative="1" as="geometry">
              <Array as="points" />
            </mxGeometry>
          </mxCell>
        </UserObject>
        <mxCell id="lH00LEIJT2bp-XvwGnt1-2" value="Clients" style="text;html=1;align=center;verticalAlign=middle;resizable=0;points=[];autosize=1;" vertex="1" parent="1">
          <mxGeometry x="590" y="90" width="50" height="20" as="geometry" />
        </mxCell>
        <mxCell id="lH00LEIJT2bp-XvwGnt1-1" value="Users" style="text;html=1;align=center;verticalAlign=middle;resizable=0;points=[];autosize=1;" vertex="1" parent="1">
          <mxGeometry x="410" y="90" width="50" height="20" as="geometry" />
        </mxCell>
        <mxCell id="lH00LEIJT2bp-XvwGnt1-9" value="" style="outlineConnect=0;fontColor=#232F3E;gradientColor=none;fillColor=#5A30B5;strokeColor=none;dashed=0;verticalLabelPosition=bottom;verticalAlign=top;align=center;html=1;fontSize=12;fontStyle=0;aspect=fixed;pointerEvents=1;shape=mxgraph.aws4.nat_gateway;" vertex="1" parent="1">
          <mxGeometry x="405" y="398" width="41" height="41" as="geometry" />
        </mxCell>
      </root>
    </mxGraphModel>
  </diagram>
</mxfile>
